<?xml version="1.0" standalone="no"?>
<!DOCTYPE svg PUBLIC "-//W3C//DTD SVG 20010904//EN"
 "http://www.w3.org/TR/2001/REC-SVG-20010904/DTD/svg10.dtd">
<svg version="1.0" xmlns="http://www.w3.org/2000/svg"
 width="300.000000pt" height="300.000000pt" viewBox="0 0 300.000000 300.000000"
 preserveAspectRatio="xMidYMid meet">
<metadata>
Created by potrace 1.11, written by Peter Selinger 2001-2013
</metadata>
<g transform="translate(0.000000,300.000000) scale(0.100000,-0.100000)"
fill="#000000" stroke="none">
<path d="M1320 2989 c-322 -40 -636 -192 -868 -421 -222 -219 -357 -467 -423
-778 -32 -149 -32 -429 -1 -576 32 -147 65 -244 132 -379 206 -418 582 -706
1050 -806 149 -32 429 -32 576 -1 151 32 245 66 389 137 409 203 697 581 796
1045 32 149 32 429 1 576 -32 147 -65 244 -132 379 -207 418 -589 711 -1050
805 -121 25 -352 34 -470 19z m416 -418 c254 -62 403 -186 482 -400 30 -81 41
-246 23 -333 -26 -121 -127 -266 -229 -325 l-45 -27 66 -17 c240 -66 390 -208
433 -408 38 -181 -3 -328 -126 -451 -143 -143 -379 -211 -788 -226 -268 -9
-492 17 -544 63 -22 20 -23 62 -3 69 24 9 18 24 -10 24 -72 0 -193 68 -215
120 -19 46 7 68 98 82 l72 12 0 83 c0 72 3 84 20 95 25 16 26 48 2 54 -36 10
-87 851 -63 1043 6 51 10 95 8 97 -2 2 -44 -7 -93 -21 -102 -28 -108 -29 -98
-14 3 6 1 29 -7 51 -17 52 -7 67 68 98 l59 25 -125 0 c-137 1 -167 9 -177 50
-10 40 21 74 100 110 116 54 397 121 671 160 129 18 313 12 421 -14z"/>
<path d="M1371 2193 l-83 -4 6 -31 c10 -52 35 -343 47 -556 10 -196 8 -291
-17 -687 -10 -157 -1 -165 176 -165 215 0 431 38 518 92 18 11 39 18 46 15 22
-9 36 13 23 35 -10 15 -9 24 5 48 16 28 16 31 -7 74 -13 24 -22 47 -19 50 2 3
1 4 -2 1 -4 -2 -32 9 -64 25 -71 36 -219 74 -370 95 -201 28 -242 34 -245 37
-2 2 -6 83 -10 181 l-7 177 39 0 c105 0 255 65 337 146 76 74 101 130 101 226
0 69 -3 81 -30 120 -67 95 -198 130 -444 121z"/>
</g>
</svg>
